<svg width="18" height="16" viewBox="0 0 18 16" fill="none" xmlns="http://www.w3.org/2000/svg">
<path d="M7.81299 11.7187C7.81299 11.9674 7.91177 12.2058 8.08758 12.3817C8.2634 12.5575 8.50185 12.6562 8.75049 12.6562C8.99913 12.6562 9.23759 12.5575 9.41341 12.3817C9.58922 12.2058 9.68799 11.9674 9.68799 11.7187C9.68799 11.4701 9.58922 11.2317 9.41341 11.0558C9.23759 10.88 8.99913 10.7812 8.75049 10.7812C8.50185 10.7812 8.2634 10.88 8.08758 11.0558C7.91177 11.2317 7.81299 11.4701 7.81299 11.7187ZM8.12549 5.78125V9.375C8.12549 9.46094 8.19581 9.53125 8.28174 9.53125H9.21924C9.30518 9.53125 9.37549 9.46094 9.37549 9.375V5.78125C9.37549 5.69531 9.30518 5.625 9.21924 5.625H8.28174C8.19581 5.625 8.12549 5.69531 8.12549 5.78125ZM17.4165 14.375L9.29151 0.3125C9.17042 0.103516 8.96143 0 8.75049 0C8.53956 0 8.32862 0.103516 8.20948 0.3125L0.0844793 14.375C-0.155755 14.793 0.145026 15.3125 0.625495 15.3125H16.8755C17.356 15.3125 17.6567 14.793 17.4165 14.375ZM2.11378 13.8301L8.75049 2.3418L15.3872 13.8301H2.11378Z" fill="#B12704"/>
</svg>
