<svg xmlns="http://www.w3.org/2000/svg" width="232.56" height="479.559" viewBox="0 0 232.56 479.559" style="&#10;">
  <g id="Group_82" data-name="Group 82" transform="translate(-8408.023 15457)">
    <g id="Group_79" data-name="Group 79" transform="translate(0 1)">
      <g id="Plus" transform="translate(8403.229 -16243.176) rotate(45)">
        <rect id="Rectangle_12" data-name="Rectangle 12" width="2.235" height="19.374" transform="translate(617.136 501.835)" fill="#e64c3c"/>
        <rect id="Rectangle_13" data-name="Rectangle 13" width="2.235" height="19.374" transform="translate(627.94 510.404) rotate(90)" fill="#e64c3c"/>
      </g>
      <g id="Plus-2" data-name="Plus" transform="translate(8453.229 -16243.176) rotate(45)">
        <rect id="Rectangle_12-2" data-name="Rectangle 12" width="2.235" height="19.374" transform="translate(617.136 501.835)" fill="#fff"/>
        <rect id="Rectangle_13-2" data-name="Rectangle 13" width="2.235" height="19.374" transform="translate(627.94 510.404) rotate(90)" fill="#fff"/>
      </g>
      <g id="Plus-3" data-name="Plus" transform="translate(8503.229 -16243.176) rotate(45)">
        <rect id="Rectangle_12-3" data-name="Rectangle 12" width="2.235" height="19.374" transform="translate(617.136 501.835)"/>
        <rect id="Rectangle_13-3" data-name="Rectangle 13" width="2.235" height="19.374" transform="translate(627.94 510.404) rotate(90)"/>
      </g>
      <g id="Plus-4" data-name="Plus" transform="translate(7860.434 -15904.184)">
        <path id="Rectangle_12-4" data-name="Rectangle 12" d="M2.763,1.117V22.3H0V1.117Z" transform="translate(618.895 501.835)" fill="#fff"/>
        <path id="Rectangle_13-4" data-name="Rectangle 13" d="M2.763,0V21.186H0V0Z" transform="translate(630.869 512.163) rotate(90)" fill="#fff"/>
      </g>
      <g id="Plus-5" data-name="Plus" transform="translate(7860.434 -15852.184)">
        <path id="Rectangle_12-5" data-name="Rectangle 12" d="M2.763,1.117V22.3H0V1.117Z" transform="translate(618.895 501.835)"/>
        <path id="Rectangle_13-5" data-name="Rectangle 13" d="M2.763,0V21.186H0V0Z" transform="translate(630.869 512.163) rotate(90)"/>
      </g>
      <g id="Plus-6" data-name="Plus" transform="translate(7910.434 -15852.184)">
        <path id="Rectangle_13-6" data-name="Rectangle 13" d="M2.763,0V16.257H0V0Z" transform="translate(625.94 512.163) rotate(90)"/>
      </g>
      <g id="Plus-7" data-name="Plus" transform="translate(7910.434 -15904.184)">
        <path id="Rectangle_13-7" data-name="Rectangle 13" d="M2.763,0V16.257H0V0Z" transform="translate(625.94 512.163) rotate(90)" fill="#fff"/>
      </g>
      <g id="Plus-8" data-name="Plus" transform="translate(7861.434 -15800.835)">
        <rect id="Rectangle_12-6" data-name="Rectangle 12" width="2.469" height="21.398" rx="1.117" transform="translate(618.031 501.835)" fill="#fff"/>
        <rect id="Rectangle_13-8" data-name="Rectangle 13" width="2.469" height="21.398" rx="1.117" transform="translate(629.964 511.299) rotate(90)" fill="#fff"/>
      </g>
      <g id="Plus-9" data-name="Plus" transform="translate(7861.434 -15751.835)">
        <rect id="Rectangle_12-7" data-name="Rectangle 12" width="2.469" height="21.398" rx="1.117" transform="translate(618.031 501.835)"/>
        <rect id="Rectangle_13-9" data-name="Rectangle 13" width="2.469" height="21.398" rx="1.117" transform="translate(629.964 511.299) rotate(90)"/>
      </g>
      <rect id="Rectangle_664" data-name="Rectangle 664" width="19.37" height="2.24" rx="1.12" transform="translate(8520 -15288)" fill="#fff"/>
      <rect id="Rectangle_664-2" data-name="Rectangle 664" width="19.37" height="2.24" rx="1.12" transform="translate(8520 -15239)"/>
      <path id="iconfinder_arrow56_216567_1_" data-name="iconfinder_arrow56_216567 (1)" d="M27.527.345,29.21,2.011,15.619,15.465l-.841.859-.84-.859L.348,2.011,2.03.345,14.778,12.616Z" transform="translate(8486.809 -15197.348) rotate(90)"/>
      <path id="iconfinder_arrow56_216567_1_2" data-name="iconfinder_arrow56_216567 (1)" d="M27.527.345,29.21,2.011,15.619,15.465l-.841.859-.84-.859L.348,2.011,2.03.345,14.778,12.616Z" transform="translate(8486.809 -15137.348) rotate(90)" fill="#fff"/>
      <path id="iconfinder_arrow56_216567_1_3" data-name="iconfinder_arrow56_216567 (1)" d="M27.179,0l1.683,1.666L15.271,15.12l-.841.859-.84-.859L0,1.666,1.682,0,14.43,12.271Z" transform="translate(8528.485 -15168.139) rotate(-90)"/>
      <path id="iconfinder_arrow56_216567_1_4" data-name="iconfinder_arrow56_216567 (1)" d="M27.179,0l1.683,1.666L15.271,15.12l-.841.859-.84-.859L0,1.666,1.682,0,14.43,12.271Z" transform="translate(8528.485 -15108.139) rotate(-90)" fill="#fff" style="&#10;    stroke-width: 2px;&#10;    stroke: #fff;&#10;"/>
      <path id="iconfinder_arrow56_216567_1_5" data-name="iconfinder_arrow56_216567 (1)" d="M27.527.345a1.2,1.2,0,0,1,1.683,0,1.17,1.17,0,0,1,0,1.666L15.619,15.465a1.2,1.2,0,0,1-1.681,0L.348,2.011a1.17,1.17,0,0,1,0-1.666,1.2,1.2,0,0,1,1.682,0L14.778,12.616Z" transform="translate(8487.809 -15077) rotate(90)"/>
      <path id="iconfinder_arrow56_216567_1_6" data-name="iconfinder_arrow56_216567 (1)" d="M27.527.345a1.2,1.2,0,0,1,1.683,0,1.17,1.17,0,0,1,0,1.666L15.619,15.465a1.2,1.2,0,0,1-1.681,0L.348,2.011a1.17,1.17,0,0,1,0-1.666,1.2,1.2,0,0,1,1.682,0L14.778,12.616Z" transform="translate(8487.809 -15008) rotate(90)" fill="#fff"/>
      <path id="iconfinder_arrow56_216567_1_7" data-name="iconfinder_arrow56_216567 (1)" d="M27.527-6.784a1.2,1.2,0,0,0,1.683,0,1.17,1.17,0,0,0,.348-.833,1.17,1.17,0,0,0-.348-.833L15.619-21.9a1.2,1.2,0,0,0-1.681,0L.348-8.45A1.17,1.17,0,0,0,0-7.617a1.17,1.17,0,0,0,.348.833,1.2,1.2,0,0,0,1.682,0L14.778-19.055Z" transform="translate(8522.561 -15077) rotate(90)"/>
      <path id="iconfinder_arrow56_216567_1_8" data-name="iconfinder_arrow56_216567 (1)" d="M27.527-6.784a1.2,1.2,0,0,0,1.683,0,1.17,1.17,0,0,0,.348-.833,1.17,1.17,0,0,0-.348-.833L15.619-21.9a1.2,1.2,0,0,0-1.681,0L.348-8.45A1.17,1.17,0,0,0,0-7.617a1.17,1.17,0,0,0,.348.833,1.2,1.2,0,0,0,1.682,0L14.778-19.055Z" transform="translate(8522.561 -15008) rotate(90)" fill="#fff"/>
      <g id="Group_4633" data-name="Group 4633" transform="translate(8564 -15463.348)">
        <g id="Ellipse_13" data-name="Ellipse 13" transform="translate(51 9)" fill="#0073c3" stroke="#0073c3" stroke-width="1">
          <circle cx="10" cy="10" r="10" stroke="none"/>
          <circle cx="10" cy="10" r="9.5" fill="none"/>
        </g>
        <path id="iconfinder_check_3325079" d="M12.772,6,6.741,12.031,4,9.289" transform="translate(52.5 10.5)" fill="none" stroke="#fff" stroke-linecap="round" stroke-linejoin="round" stroke-width="1"/>
      </g>
      <g id="Fill" transform="translate(8567 -15401)">
        <path id="Subtraction_1" data-name="Subtraction 1" d="M8469.9-3605.5h-8.751a1.876,1.876,0,0,1-1.875-1.875v-10.9h12.5v10.9a1.877,1.877,0,0,1-1.874,1.875Zm-11.854-13.75h-.023v-1.25h5v-.625c0-1.155,1.02-1.4,1.875-1.4h1.183c.725,0,1.941.181,1.941,1.4v.625h5v1.229h-14.977v.021Z" transform="translate(-8454.023 3625)" fill="#707070"/>
      </g>
      <path id="iconfinder_new-24_103173" d="M15.617,4.8a8.172,8.172,0,0,0-2.846-2.82L13.75,1a3.5,3.5,0,0,1,2.125.708,3.5,3.5,0,0,1,.708,2.125ZM7.375,13.042H4.542V10.208l.34-.34A5.931,5.931,0,0,1,7.715,12.7ZM14.8,5.618,8.532,11.884A8.224,8.224,0,0,0,7.294,10.3,8.183,8.183,0,0,0,5.687,9.062l6.278-6.277A5.923,5.923,0,0,1,14.8,5.618ZM3.125,3.125V14.458H14.458V9.5l2.125-2.152v7.819a1.417,1.417,0,0,1-1.417,1.417H2.417A1.417,1.417,0,0,1,1,15.167V2.417A1.417,1.417,0,0,1,2.417,1h7.8L8.09,3.125Z" transform="translate(8616 -15399)" fill="#707070"/>
      <g id="Group_4695" data-name="Group 4695" transform="translate(8566.234 -15351.23)">
        <g id="zoom-in_3_" data-name="zoom-in (3)" transform="translate(4.765 5.235)">
          <g id="Group_4691" data-name="Group 4691">
            <g id="Group_4690" data-name="Group 4690">
              <path id="Path_26" data-name="Path 26" d="M14.828,14,10.6,9.767a5.978,5.978,0,1,0-.829.829L14,14.828A.586.586,0,0,0,14.828,14ZM9.373,9.373a4.806,4.806,0,1,1,0-6.8,4.806,4.806,0,0,1,0,6.8Z"/>
            </g>
          </g>
          <g id="Group_4693" data-name="Group 4693" transform="translate(2.52 2.52)">
            <g id="Group_4692" data-name="Group 4692">
              <path id="Path_27" data-name="Path 27" d="M92.33,88.874H90.047V86.591a.586.586,0,0,0-1.172,0v2.283H86.591a.586.586,0,0,0,0,1.172h2.283V92.33a.586.586,0,0,0,1.172,0V90.047H92.33a.586.586,0,0,0,0-1.172Z" transform="translate(-86.005 -86.005)"/>
            </g>
          </g>
        </g>
      </g>
      <g id="Group_4695-2" data-name="Group 4695" transform="translate(8566.234 -15301.23)">
        <g id="zoom-in_3_2" data-name="zoom-in (3)" transform="translate(4.765 5.235)">
          <g id="Group_4691-2" data-name="Group 4691">
            <g id="Group_4690-2" data-name="Group 4690">
              <path id="Path_26-2" data-name="Path 26" d="M14.828,14,10.6,9.767a5.978,5.978,0,1,0-.829.829L14,14.828A.586.586,0,0,0,14.828,14ZM9.373,9.373a4.806,4.806,0,1,1,0-6.8,4.806,4.806,0,0,1,0,6.8Z" fill="#fff"/>
            </g>
          </g>
          <g id="Group_4693-2" data-name="Group 4693" transform="translate(2.52 2.52)">
            <g id="Group_4692-2" data-name="Group 4692">
              <path id="Path_27-2" data-name="Path 27" d="M92.33,88.874H90.047V86.591a.586.586,0,0,0-1.172,0v2.283H86.591a.586.586,0,0,0,0,1.172h2.283V92.33a.586.586,0,0,0,1.172,0V90.047H92.33a.586.586,0,0,0,0-1.172Z" transform="translate(-86.005 -86.005)" fill="#fff"/>
            </g>
          </g>
        </g>
      </g>
      <g id="Group_4695-3" data-name="Group 4695" transform="translate(8566.234 -15195.23)">
        <g id="zoom-in_3_3" data-name="zoom-in (3)" transform="translate(4.765 5.235)">
          <g id="Group_4691-3" data-name="Group 4691">
            <g id="Group_4690-3" data-name="Group 4690">
              <path id="Path_26-3" data-name="Path 26" d="M14.828,14,10.6,9.767a5.978,5.978,0,1,0-.829.829L14,14.828A.586.586,0,0,0,14.828,14ZM9.373,9.373a4.806,4.806,0,1,1,0-6.8,4.806,4.806,0,0,1,0,6.8Z" fill="#fff"/>
            </g>
          </g>
        </g>
      </g>
      <g id="Group_4695-4" data-name="Group 4695" transform="translate(8566.234 -15250.23)">
        <g id="zoom-in_3_4" data-name="zoom-in (3)" transform="translate(4.765 5.235)">
          <g id="Group_4691-4" data-name="Group 4691">
            <g id="Group_4690-4" data-name="Group 4690">
              <path id="Path_26-4" data-name="Path 26" d="M14.828,14,10.6,9.767a5.978,5.978,0,1,0-.829.829L14,14.828A.586.586,0,0,0,14.828,14ZM9.373,9.373a4.806,4.806,0,1,1,0-6.8,4.806,4.806,0,0,1,0,6.8Z"/>
            </g>
          </g>
        </g>
      </g>
      <g id="Group_4695-5" data-name="Group 4695" transform="translate(8612.234 -15351.23)">
        <g id="zoom-in_3_5" data-name="zoom-in (3)" transform="translate(4.765 5.235)">
          <g id="Group_4691-5" data-name="Group 4691">
            <g id="Group_4690-5" data-name="Group 4690">
              <path id="Path_26-5" data-name="Path 26" d="M14.828,14,10.6,9.767a5.978,5.978,0,1,0-.829.829L14,14.828A.586.586,0,0,0,14.828,14ZM9.373,9.373a4.806,4.806,0,1,1,0-6.8,4.806,4.806,0,0,1,0,6.8Z"/>
            </g>
          </g>
          <g id="Group_4693-3" data-name="Group 4693" transform="translate(2.52 2.52)">
            <g id="Group_4692-3" data-name="Group 4692">
              <path id="Path_27-3" data-name="Path 27" d="M92.33,88.874H90.047V86.591a.586.586,0,0,0-1.172,0v2.283H86.591a.586.586,0,0,0,0,1.172h2.283V92.33a.586.586,0,0,0,1.172,0V90.047H92.33a.586.586,0,0,0,0-1.172Z" transform="translate(-86.005 -86.005)"/>
            </g>
          </g>
        </g>
      </g>
      <g id="Group_4695-6" data-name="Group 4695" transform="translate(8612.234 -15301.23)">
        <g id="zoom-in_3_6" data-name="zoom-in (3)" transform="translate(4.765 5.235)">
          <g id="Group_4691-6" data-name="Group 4691">
            <g id="Group_4690-6" data-name="Group 4690">
              <path id="Path_26-6" data-name="Path 26" d="M14.828,14,10.6,9.767a5.978,5.978,0,1,0-.829.829L14,14.828A.586.586,0,0,0,14.828,14ZM9.373,9.373a4.806,4.806,0,1,1,0-6.8,4.806,4.806,0,0,1,0,6.8Z" fill="#fff"/>
            </g>
          </g>
          <g id="Group_4693-4" data-name="Group 4693" transform="translate(2.52 2.52)">
            <g id="Group_4692-4" data-name="Group 4692">
              <path id="Path_27-4" data-name="Path 27" d="M92.33,88.874H90.047V86.591a.586.586,0,0,0-1.172,0v2.283H86.591a.586.586,0,0,0,0,1.172h2.283V92.33a.586.586,0,0,0,1.172,0V90.047H92.33a.586.586,0,0,0,0-1.172Z" transform="translate(-86.005 -86.005)" fill="#fff"/>
            </g>
          </g>
        </g>
      </g>
      <g id="Group_4695-7" data-name="Group 4695" transform="translate(8612.234 -15195.23)">
        <g id="zoom-in_3_7" data-name="zoom-in (3)" transform="translate(4.765 5.235)">
          <g id="Group_4691-7" data-name="Group 4691">
            <g id="Group_4690-7" data-name="Group 4690">
              <path id="Path_26-7" data-name="Path 26" d="M14.828,14,10.6,9.767a5.978,5.978,0,1,0-.829.829L14,14.828A.586.586,0,0,0,14.828,14ZM9.373,9.373a4.806,4.806,0,1,1,0-6.8,4.806,4.806,0,0,1,0,6.8Z" fill="#fff"/>
            </g>
          </g>
        </g>
      </g>
      <g id="Group_4695-8" data-name="Group 4695" transform="translate(8612.234 -15250.23)">
        <g id="zoom-in_3_8" data-name="zoom-in (3)" transform="translate(4.765 5.235)">
          <g id="Group_4691-8" data-name="Group 4691">
            <g id="Group_4690-8" data-name="Group 4690">
              <path id="Path_26-8" data-name="Path 26" d="M14.828,14,10.6,9.767a5.978,5.978,0,1,0-.829.829L14,14.828A.586.586,0,0,0,14.828,14ZM9.373,9.373a4.806,4.806,0,1,1,0-6.8,4.806,4.806,0,0,1,0,6.8Z"/>
            </g>
          </g>
        </g>
      </g>
      <g id="Group_4704" data-name="Group 4704" transform="translate(5349.5 -16652.293)">
        <g id="sale" transform="translate(3223.5 1522.945)">
          <g id="Group_4702" data-name="Group 4702">
            <g id="Group_4701" data-name="Group 4701">
              <path id="Path_28" data-name="Path 28" d="M52.568,67.946h4.514a1.612,1.612,0,0,1,1.148.475l6.384,6.384a1.623,1.623,0,0,1,0,2.3L60.1,81.614a1.625,1.625,0,0,1-2.3,0L51.42,75.23a1.612,1.612,0,0,1-.475-1.148V69.569a1.625,1.625,0,0,1,1.623-1.623Zm2.164,5.41a1.623,1.623,0,1,0-1.623-1.623A1.623,1.623,0,0,0,54.732,73.356Z" transform="translate(-50.945 -67.946)" fill="red"/>
            </g>
          </g>
        </g>
      </g>
      <g id="Group_4704-2" data-name="Group 4704" transform="translate(5397.5 -16652.293)">
        <g id="sale-2" data-name="sale" transform="translate(3223.5 1522.945)">
          <g id="Group_4702-2" data-name="Group 4702">
            <g id="Group_4701-2" data-name="Group 4701">
              <path id="Path_28-2" data-name="Path 28" d="M52.568,67.946h4.514a1.612,1.612,0,0,1,1.148.475l6.384,6.384a1.623,1.623,0,0,1,0,2.3L60.1,81.614a1.625,1.625,0,0,1-2.3,0L51.42,75.23a1.612,1.612,0,0,1-.475-1.148V69.569a1.625,1.625,0,0,1,1.623-1.623Zm2.164,5.41a1.623,1.623,0,1,0-1.623-1.623A1.623,1.623,0,0,0,54.732,73.356Z" transform="translate(-50.945 -67.946)"/>
            </g>
          </g>
        </g>
      </g>
      <path id="Path_1" data-name="Path 1" d="M13.432,16.42l4.641,4.641,4.641-4.641,1.432,1.426L18.073,23.92,12,17.846Z" transform="translate(8562 -15082.42)" style="&#10;    fill: #152f90;&#10;"/>
      <path id="Path_1-2" data-name="Path 1" d="M13.432,16.42l4.641,4.641,4.641-4.641,1.432,1.426L18.073,23.92,12,17.846Z" transform="translate(8407 -15082.42)" fill="#152f90"/>
      <path id="Path_1-3" data-name="Path 1" d="M13.432,16.42l4.641,4.641,4.641-4.641,1.432,1.426L18.073,23.92,12,17.846Z" transform="translate(8610 -15082.42)" fill="#fff"/>
      <path id="foursquare-check-in" d="M.022,74.485l8.9,8.921,17.1-17.08-2.477-1.882L8.9,79.068,2.421,72.585Z" transform="translate(8410 -15412.443)"/>
      <g id="Group_87" data-name="Group 87">
        <path id="foursquare-check-in-2" data-name="foursquare-check-in" d="M.022,70.345l5.23,5.242L15.3,65.55l-1.456-1.106L5.239,73.038l-3.807-3.81Z" transform="translate(8415.001 -15461.444)" fill="#fff"/>
        <g id="Ellipse_13-2" data-name="Ellipse 13" transform="translate(8408.023 -15406)" fill="none" stroke="#fff" stroke-width="2">
          <ellipse cx="15" cy="14.5" rx="15" ry="14.5" stroke="none"/>
          <ellipse cx="15" cy="14.5" rx="14" ry="13.5" fill="none"/>
        </g>
      </g>
      <g id="Group_89" data-name="Group 89">
        <g id="Group_88" data-name="Group 88" transform="translate(0 -52)">
          <g id="Ellipse_13-3" data-name="Ellipse 13" transform="translate(8408.023 -15406)" fill="none" stroke="#152f90" stroke-width="2">
            <ellipse cx="15" cy="14.5" rx="15" ry="14.5" stroke="none"/>
            <ellipse cx="15" cy="14.5" rx="14" ry="13.5" fill="none"/>
          </g>
        </g>
        <g id="Plus-10" data-name="Plus" transform="translate(7806.434 -15953.184)">
          <path id="Rectangle_12-8" data-name="Rectangle 12" d="M1.809,1.117V14.988H0V1.117Z" transform="translate(615.715 501.835)" fill="#152f90"/>
          <path id="Rectangle_13-10" data-name="Rectangle 13" d="M1.809,0V13.873H0V0Z" transform="translate(623.556 508.983) rotate(90)" fill="#152f90"/>
        </g>
      </g>
      <path id="basket" d="M22.555,39.2v.627a.94.94,0,0,1-.94.94H21.3l-1.023,7.158s-.925,1.614-1.861,1.614H4.136a1.88,1.88,0,0,1-1.861-1.614L1.253,40.769H.94a.94.94,0,0,1-.94-.94V39.2a.94.94,0,0,1,.94-.94H3.577l4.181-5.749a1.253,1.253,0,1,1,2.027,1.474l-3.11,4.277h9.2l-3.1-4.275a1.254,1.254,0,0,1,2.03-1.474l4.181,5.749h2.637a.94.94,0,0,1,.937.938ZM12.217,46.094V41.708a.94.94,0,0,0-1.88,0v4.386a.94.94,0,0,0,1.88,0Zm4.386,0V41.708a.94.94,0,0,0-1.88,0v4.386a.94.94,0,0,0,.94.94c.519,0,.937-.94.937-.94Zm-8.771,0V41.708a.94.94,0,0,0-1.88,0v4.386a.94.94,0,0,0,1.88,0Z" transform="translate(8618.023 -15034.768)" fill="#fff"/>
      <path id="basket-2" data-name="basket" d="M22.555,39.2v.627a.94.94,0,0,1-.94.94H21.3l-1.023,7.158s-.925,1.614-1.861,1.614H4.136a1.88,1.88,0,0,1-1.861-1.614L1.253,40.769H.94a.94.94,0,0,1-.94-.94V39.2a.94.94,0,0,1,.94-.94H3.577l4.181-5.749a1.253,1.253,0,1,1,2.027,1.474l-3.11,4.277h9.2l-3.1-4.275a1.254,1.254,0,0,1,2.03-1.474l4.181,5.749h2.637a.94.94,0,0,1,.937.938ZM12.217,46.094V41.708a.94.94,0,0,0-1.88,0v4.386a.94.94,0,0,0,1.88,0Zm4.386,0V41.708a.94.94,0,0,0-1.88,0v4.386a.94.94,0,0,0,.94.94c.519,0,.937-.94.937-.94Zm-8.771,0V41.708a.94.94,0,0,0-1.88,0v4.386a.94.94,0,0,0,1.88,0Z" transform="translate(8569.023 -15034.768)" fill="#161616"/>
    </g>
    <g id="Group_80" data-name="Group 80" transform="translate(3 53)">
      <rect id="Rectangle_12-9" data-name="Rectangle 12" width="2.469" height="25.398" rx="1.117" transform="translate(8436.222 -15350.566) rotate(45)" fill="#fff"/>
      <path id="Rectangle_12-10" data-name="Rectangle 12" d="M1.117,0h.235A1.117,1.117,0,0,1,2.469,1.117V12.281A1.117,1.117,0,0,1,1.352,13.4l.01.5C.745,13.894,0,12.9,0,12.281V1.117A1.117,1.117,0,0,1,1.117,0Z" transform="translate(8409.747 -15340.335) rotate(-45)" fill="#fff"/>
    </g>
    <g id="Group_81" data-name="Group 81" transform="translate(3 100)">
      <rect id="Rectangle_12-11" data-name="Rectangle 12" width="2.469" height="25.398" rx="1.117" transform="translate(8436.222 -15350.566) rotate(45)"/>
      <path id="Rectangle_12-12" data-name="Rectangle 12" d="M1.117,0h.235A1.117,1.117,0,0,1,2.469,1.117V12.281A1.117,1.117,0,0,1,1.352,13.4l.01.5C.745,13.894,0,12.9,0,12.281V1.117A1.117,1.117,0,0,1,1.117,0Z" transform="translate(8409.747 -15340.335) rotate(-45)"/>
    </g>
  </g>
</svg>