<svg width="72" height="72" viewBox="0 0 72 72" fill="none" xmlns="http://www.w3.org/2000/svg">
<path d="M36 59.7539C35.6845 59.7536 35.3725 59.6872 35.0843 59.5588C33.9443 59.0457 7.1474 46.7736 7.1474 28.7824C7.31416 24.3799 9.16503 20.2095 12.3179 17.1323C15.4707 14.0551 19.6848 12.306 24.09 12.2461C28.2256 12.2008 32.2616 13.5146 35.5781 15.9856L35.9974 16.3093L36.4137 15.9839C39.7144 13.4752 43.7671 12.1578 47.912 12.2461C52.3169 12.3063 56.5305 14.0557 59.6828 17.1329C62.8351 20.2101 64.6856 24.3803 64.852 28.7824C64.852 46.8048 38.0555 59.0469 36.9148 59.5588C36.6269 59.6872 36.3152 59.7536 36 59.7539V59.7539ZM24.09 16.4385C20.8199 16.5281 17.7043 17.8496 15.3672 20.1386C13.03 22.4275 11.6438 25.5149 11.4861 28.7824C11.4861 42.0524 30.0131 52.333 35.6916 55.1676L35.9984 55.3211L36.305 55.1676C41.9842 52.3276 60.5133 42.0314 60.5133 28.7824C60.3562 25.5152 58.9706 22.4279 56.6339 20.1389C54.2972 17.8499 51.1821 16.5282 47.9123 16.4385C44.8583 16.3725 41.8649 17.2962 39.3792 19.0716L38.8972 19.4266L39.2153 19.9251C40.684 22.2152 41.4651 24.8785 41.4659 27.5991C41.4659 35 36.7285 39 32.2963 40.273C31.1042 40.6163 29.8698 40.7908 28.6293 40.7913C26.7916 40.8453 24.9687 40.4483 23.32 39.6349C21.6712 38.8216 20.2469 37.6167 19.1714 36.1256C19.0168 35.8953 18.9104 35.6362 18.8584 35.3637C18.8065 35.0913 18.8102 34.8112 18.8692 34.5402C18.9282 34.2692 19.0414 34.0129 19.202 33.7867C19.3625 33.5606 19.5671 33.3692 19.8035 33.2241C20.1576 33.0005 20.5678 32.8819 20.9866 32.882C21.3443 32.8791 21.6972 32.9642 22.0141 33.1299C22.3311 33.2956 22.6025 33.5367 22.8043 33.832C23.4703 34.7307 24.3458 35.4531 25.3546 35.9363C26.3634 36.4195 27.475 36.6488 28.5927 36.6044C29.4272 36.6029 30.2573 36.4849 31.0592 36.2539C34.8592 35.161 37.1267 31.9258 37.1267 27.5988C37.1267 21.34 31.4004 16.4382 24.0903 16.4382L24.09 16.4385Z" fill="#EA0029"/>
</svg>
