<svg width="280" height="374" viewBox="0 0 280 374" fill="none" xmlns="http://www.w3.org/2000/svg">
<rect width="280" height="374" fill="white"/>
<path d="M140 223.95C139.509 223.95 139.024 223.847 138.576 223.647C136.802 222.849 95.1182 203.759 95.1182 175.773C95.3776 168.924 98.2567 162.437 103.161 157.65C108.066 152.863 114.621 150.143 121.473 150.049C127.906 149.979 134.185 152.023 139.344 155.866L139.996 156.37L140.644 155.864C145.778 151.961 152.082 149.912 158.53 150.049C165.382 150.143 171.936 152.864 176.84 157.651C181.744 162.438 184.622 168.925 184.881 175.773C184.881 203.807 143.197 222.851 141.423 223.647C140.975 223.847 140.49 223.95 140 223.95V223.95ZM121.473 156.571C116.386 156.71 111.54 158.766 107.904 162.327C104.269 165.887 102.113 170.69 101.867 175.773C101.867 196.415 130.687 212.407 139.52 216.816L139.998 217.055L140.474 216.816C149.309 212.398 178.132 196.382 178.132 175.773C177.887 170.69 175.732 165.888 172.097 162.327C168.462 158.767 163.617 156.711 158.53 156.571C153.78 156.468 149.123 157.905 145.257 160.667L144.507 161.219L145.002 161.995C147.286 165.557 148.501 169.7 148.502 173.932C148.502 185.444 141.133 191.667 134.239 193.647C132.384 194.181 130.464 194.452 128.534 194.453C125.676 194.537 122.84 193.919 120.276 192.654C117.711 191.389 115.495 189.515 113.822 187.195C113.582 186.837 113.416 186.434 113.335 186.01C113.255 185.586 113.26 185.151 113.352 184.729C113.444 184.308 113.62 183.909 113.87 183.557C114.119 183.205 114.438 182.908 114.805 182.682C115.356 182.334 115.994 182.15 116.646 182.15C117.202 182.145 117.751 182.278 118.244 182.535C118.737 182.793 119.159 183.168 119.473 183.628C120.509 185.026 121.871 186.149 123.44 186.901C125.01 187.652 126.739 188.009 128.478 187.94C129.776 187.938 131.067 187.754 132.314 187.395C138.225 185.695 141.753 180.662 141.753 173.931C141.753 164.196 132.845 156.57 121.474 156.57L121.473 156.571Z" fill="#D8D8D8"/>
</svg>
