<svg width="81" height="281" viewBox="0 0 81 281" fill="none" xmlns="http://www.w3.org/2000/svg">
<path d="M17.6332 160.383C17.9139 160.103 17.9139 159.647 17.6332 159.367C17.3525 159.086 16.8975 159.086 16.6168 159.367L16.6875 159.437L16.6168 159.367L13.6364 162.347C13.2849 162.699 12.7151 162.699 12.3636 162.347L9.38318 159.367C9.1025 159.086 8.64744 159.086 8.36676 159.367C8.08608 159.647 8.08608 160.103 8.36676 160.383L11.3472 163.364C11.6987 163.715 11.6987 164.285 11.3472 164.636L8.36676 167.617C8.08608 167.897 8.08608 168.353 8.36676 168.633C8.64744 168.914 9.1025 168.914 9.38318 168.633L12.3636 165.653C12.7151 165.301 13.2849 165.301 13.6364 165.653L16.6168 168.633C16.8975 168.914 17.3525 168.914 17.6332 168.633C17.9139 168.353 17.9139 167.897 17.6332 167.617L14.6528 164.636C14.3013 164.285 14.3013 163.715 14.6528 163.364L17.6332 160.383Z" fill="#161615" stroke="black" stroke-width="0.2"/>
<path d="M19 68C19.5523 68 20 68.4477 20 69C20 69.5523 19.5523 70 19 70H15C14.4477 70 14 70.4477 14 71V75C14 75.5523 13.5523 76 13 76C12.4477 76 12 75.5523 12 75V71C12 70.4477 11.5523 70 11 70H7C6.44772 70 6 69.5523 6 69C6 68.4477 6.44772 68 7 68H11C11.5523 68 12 67.5523 12 67V63C12 62.4477 12.4477 62 13 62C13.5523 62 14 62.4477 14 63V67C14 67.5523 14.4477 68 15 68H19Z" fill="black"/>
<path d="M24.3001 10.1001C24.6867 9.71351 24.6867 9.08671 24.3001 8.70011C23.9135 8.31351 23.2867 8.31351 22.9001 8.70011L17.7072 13.893C17.3167 14.2835 16.6835 14.2835 16.293 13.893L11.1001 8.70011C10.7135 8.31351 10.0867 8.31351 9.70011 8.70011C9.31351 9.08671 9.31351 9.71351 9.70011 10.1001L14.893 15.293C15.2835 15.6835 15.2835 16.3167 14.893 16.7072L9.70011 21.9001C9.31351 22.2867 9.31351 22.9135 9.70011 23.3001C10.0867 23.6867 10.7135 23.6867 11.1001 23.3001L16.293 18.1072C16.6835 17.7167 17.3167 17.7167 17.7072 18.1072L22.9001 23.3001C23.2867 23.6867 23.9135 23.6867 24.3001 23.3001C24.6867 22.9135 24.6867 22.2867 24.3001 21.9001L19.1072 16.7072C18.7167 16.3167 18.7167 15.6835 19.1072 15.293L24.3001 10.1001Z" fill="white"/>
<path fill-rule="evenodd" clip-rule="evenodd" d="M72.3379 117.334L67.2435 122.425C66.959 122.709 66.4978 122.709 66.2133 122.425C65.9289 122.141 65.9289 121.68 66.2133 121.396L70.7922 116.82L66.2133 112.242C65.9508 111.98 65.9306 111.567 66.1528 111.282L66.2133 111.213C66.4759 110.951 66.8891 110.931 67.1749 111.153L67.2435 111.213L72.3379 116.304C72.4692 116.436 72.5399 116.604 72.55 116.776V116.863C72.5399 117.034 72.4692 117.203 72.3379 117.334Z" fill="black"/>
<mask id="mask0" mask-type="alpha" maskUnits="userSpaceOnUse" x="66" y="111" width="7" height="12">
<path fill-rule="evenodd" clip-rule="evenodd" d="M72.3379 117.334L67.2435 122.425C66.959 122.709 66.4978 122.709 66.2133 122.425C65.9289 122.141 65.9289 121.68 66.2133 121.396L70.7922 116.82L66.2133 112.242C65.9508 111.98 65.9306 111.567 66.1528 111.282L66.2133 111.213C66.4759 110.951 66.8891 110.931 67.1749 111.153L67.2435 111.213L72.3379 116.304C72.4692 116.436 72.5399 116.604 72.55 116.776V116.863C72.5399 117.034 72.4692 117.203 72.3379 117.334Z" fill="white"/>
</mask>
<g mask="url(#mask0)">
<path d="M63.4531 110.627V122.999H75.0975V110.627H63.4531Z" fill="#161615"/>
</g>
<mask id="mask1" mask-type="alpha" maskUnits="userSpaceOnUse" x="10" y="111" width="8" height="12">
<path fill-rule="evenodd" clip-rule="evenodd" d="M10.6623 117.334L15.7567 122.425C16.0412 122.709 16.5024 122.709 16.7869 122.425C17.0713 122.141 17.0713 121.68 16.7869 121.396L12.208 116.82L16.7869 112.242C17.0494 111.98 17.0696 111.567 16.8474 111.282L16.7869 111.213C16.5243 110.951 16.1111 110.931 15.8253 111.153L15.7567 111.213L10.6623 116.304C10.531 116.436 10.4603 116.604 10.4502 116.776V116.863C10.4603 117.034 10.531 117.203 10.6623 117.334Z" fill="white"/>
</mask>
<g mask="url(#mask1)">
<path d="M19.5469 110.627V122.999H7.90248V110.627H19.5469Z" fill="#161615"/>
</g>
<path d="M67.707 70.8788C67.3165 71.2693 66.6833 71.2693 66.2928 70.8788L64.4139 68.9999C64.0234 68.6094 63.3904 68.6094 62.9999 68.9999C62.6094 69.3904 62.6094 70.0234 62.9999 70.4139L66.2928 73.7068C66.6833 74.0973 67.3165 74.0973 67.707 73.7068L75.9999 65.4139C76.3904 65.0234 76.3904 64.3904 75.9999 63.9999C75.6094 63.6094 74.9764 63.6094 74.5859 63.9999L67.707 70.8788Z" fill="white"/>
<path d="M65.2458 158.736C65.5724 158.41 66.099 158.41 66.4257 158.736L71.9651 164.276C72.0269 164.337 72.0759 164.411 72.1093 164.491C72.1428 164.572 72.16 164.658 72.16 164.746C72.16 164.833 72.1428 164.919 72.1093 165C72.0759 165.081 72.0269 165.154 71.9651 165.216L66.4257 170.755C66.099 171.082 65.5724 171.082 65.2458 170.755C64.9192 170.428 64.9192 169.902 65.2458 169.575L70.0719 164.742L65.2391 159.91C64.9192 159.59 64.9192 159.056 65.2458 158.736Z" fill="#0277BD"/>
<path d="M10.0241 222.277C11.0329 222.277 11.8988 221.497 11.8988 220.477C11.8988 219.457 11.0329 218.676 10.0241 218.676C9.01527 218.676 8.14941 219.457 8.14941 220.477C8.14941 221.497 9.01527 222.277 10.0241 222.277Z" fill="white"/>
<path d="M18.0222 222.277C19.0311 222.277 19.8969 221.497 19.8969 220.477C19.8969 219.457 19.0311 218.676 18.0222 218.676C17.0134 218.676 16.1475 219.457 16.1475 220.477C16.1475 221.497 17.0134 222.277 18.0222 222.277Z" fill="white"/>
<path d="M9.33339 215.48L8.83478 213.179H21.0194C21.2102 213.183 21.3975 213.124 21.5497 213.012C21.7025 212.899 21.8109 212.739 21.8543 212.556L23.229 206.704C23.2575 206.584 23.2569 206.46 23.2271 206.34C23.1972 206.221 23.139 206.11 23.0576 206.016C22.9763 205.922 22.8739 205.848 22.7587 205.798C22.6441 205.748 22.5195 205.724 22.3941 205.726H7.27257L6.73365 203.115L6.73338 203.114C6.69341 202.928 6.58636 202.764 6.43316 202.648C6.28051 202.533 6.0912 202.472 5.89803 202.475H3V204.076H5.21404L7.81465 216.441C7.85462 216.627 7.96183 216.791 8.11503 216.907C8.26768 217.023 8.45701 217.083 8.65019 217.08H21.1711V215.48H9.33339ZM21.3474 207.327L20.3522 211.578H8.5092L7.61034 207.327H21.3474Z" fill="white"/>
<path d="M10.0241 222.277C11.0329 222.277 11.8988 221.497 11.8988 220.477C11.8988 219.457 11.0329 218.676 10.0241 218.676C9.01527 218.676 8.14941 219.457 8.14941 220.477C8.14941 221.497 9.01527 222.277 10.0241 222.277Z" stroke="white" stroke-width="0.3"/>
<path d="M18.0222 222.277C19.0311 222.277 19.8969 221.497 19.8969 220.477C19.8969 219.457 19.0311 218.676 18.0222 218.676C17.0134 218.676 16.1475 219.457 16.1475 220.477C16.1475 221.497 17.0134 222.277 18.0222 222.277Z" stroke="white" stroke-width="0.3"/>
<path d="M9.33339 215.48L8.83478 213.179H21.0194C21.2102 213.183 21.3975 213.124 21.5497 213.012C21.7025 212.899 21.8109 212.739 21.8543 212.556L23.229 206.704C23.2575 206.584 23.2569 206.46 23.2271 206.34C23.1972 206.221 23.139 206.11 23.0576 206.016C22.9763 205.922 22.8739 205.848 22.7587 205.798C22.6441 205.748 22.5195 205.724 22.3941 205.726H7.27257L6.73365 203.115L6.73338 203.114C6.69341 202.928 6.58636 202.764 6.43316 202.648C6.28051 202.533 6.0912 202.472 5.89803 202.475H3V204.076H5.21404L7.81465 216.441C7.85462 216.627 7.96183 216.791 8.11503 216.907C8.26768 217.023 8.45701 217.083 8.65019 217.08H21.1711V215.48H9.33339ZM21.3474 207.327L20.3522 211.578H8.5092L7.61034 207.327H21.3474Z" stroke="white" stroke-width="0.3"/>
<path d="M80 210.396C80.5523 210.396 81 210.844 81 211.396V212.528C81 213.081 80.5523 213.528 80 213.528H72.5714C72.0191 213.528 71.5714 213.976 71.5714 214.528V221.925C71.5714 222.477 71.1237 222.925 70.5714 222.925H69.4286C68.8763 222.925 68.4286 222.477 68.4286 221.925V214.528C68.4286 213.976 67.9809 213.528 67.4286 213.528H60C59.4477 213.528 59 213.081 59 212.528V211.396C59 210.844 59.4477 210.396 60 210.396H67.4286C67.9809 210.396 68.4286 209.949 68.4286 209.396V202C68.4286 201.448 68.8763 201 69.4286 201H70.5714C71.1237 201 71.5714 201.448 71.5714 202V209.396C71.5714 209.949 72.0191 210.396 72.5714 210.396H80Z" fill="#161615"/>
<path d="M23 255C22.7348 255 22.4804 255.105 22.2929 255.293C22.1054 255.48 22 255.735 22 256V262C22 262.265 21.8946 262.52 21.7071 262.707C21.5196 262.895 21.2652 263 21 263H9C8.73478 263 8.48043 262.895 8.29289 262.707C8.10536 262.52 8 262.265 8 262V250C8 249.735 8.10536 249.48 8.29289 249.293C8.48043 249.105 8.73478 249 9 249H15C15.2652 249 15.5196 248.895 15.7071 248.707C15.8946 248.52 16 248.265 16 248C16 247.735 15.8946 247.48 15.7071 247.293C15.5196 247.105 15.2652 247 15 247H9C8.20435 247 7.44129 247.316 6.87868 247.879C6.31607 248.441 6 249.204 6 250V262C6 262.796 6.31607 263.559 6.87868 264.121C7.44129 264.684 8.20435 265 9 265H21C21.7956 265 22.5587 264.684 23.1213 264.121C23.6839 263.559 24 262.796 24 262V256C24 255.735 23.8946 255.48 23.7071 255.293C23.5196 255.105 23.2652 255 23 255Z" fill="#0277BD"/>
<path d="M19 249H20.58L14.29 255.28C14.1963 255.373 14.1219 255.484 14.0711 255.605C14.0203 255.727 13.9942 255.858 13.9942 255.99C13.9942 256.122 14.0203 256.253 14.0711 256.375C14.1219 256.496 14.1963 256.607 14.29 256.7C14.383 256.794 14.4936 256.868 14.6154 256.919C14.7373 256.97 14.868 256.996 15 256.996C15.132 256.996 15.2627 256.97 15.3846 256.919C15.5064 256.868 15.617 256.794 15.71 256.7L22 250.42V252C22 252.265 22.1054 252.52 22.2929 252.707C22.4804 252.895 22.7348 253 23 253C23.2652 253 23.5196 252.895 23.7071 252.707C23.8946 252.52 24 252.265 24 252V248C24 247.735 23.8946 247.48 23.7071 247.293C23.5196 247.105 23.2652 247 23 247H19C18.7348 247 18.4804 247.105 18.2929 247.293C18.1054 247.48 18 247.735 18 248C18 248.265 18.1054 248.52 18.2929 248.707C18.4804 248.895 18.7348 249 19 249Z" fill="#0277BD"/>
<path d="M78.9459 265.706L73.1027 259.863C74.0094 258.691 74.4999 257.257 74.4999 255.75C74.4999 253.945 73.7957 252.253 72.5222 250.978C71.2487 249.702 69.5522 249 67.75 249C65.9477 249 64.2512 249.704 62.9777 250.978C61.702 252.251 61 253.945 61 255.75C61 257.552 61.7042 259.249 62.9777 260.522C64.2512 261.798 65.9455 262.5 67.75 262.5C69.2575 262.5 70.6885 262.009 71.8607 261.105L77.7039 266.946C77.7211 266.963 77.7414 266.977 77.7638 266.986C77.7862 266.995 77.8102 267 77.8344 267C77.8587 267 77.8827 266.995 77.9051 266.986C77.9274 266.977 77.9478 266.963 77.9649 266.946L78.9459 265.967C78.9631 265.95 78.9767 265.93 78.9859 265.907C78.9952 265.885 79 265.861 79 265.837C79 265.812 78.9952 265.788 78.9859 265.766C78.9767 265.744 78.9631 265.723 78.9459 265.706ZM71.314 259.314C70.36 260.266 69.0955 260.79 67.75 260.79C66.4045 260.79 65.14 260.266 64.186 259.314C63.2342 258.36 62.71 257.095 62.71 255.75C62.71 254.404 63.2342 253.138 64.186 252.186C65.14 251.234 66.4045 250.71 67.75 250.71C69.0955 250.71 70.3622 251.232 71.314 252.186C72.2657 253.14 72.7899 254.404 72.7899 255.75C72.7899 257.095 72.2657 258.362 71.314 259.314Z" fill="#3E3E3E"/>
</svg>
