<svg width="120" height="45" viewBox="0 0 120 45" fill="none" xmlns="http://www.w3.org/2000/svg">
<path d="M18 25H2C0.89543 25 0 25.8954 0 27V43C0 44.1046 0.89543 45 2 45H18C19.1046 45 20 44.1046 20 43V27C20 25.8954 19.1046 25 18 25Z" fill="#F7941D"/>
<path fill-rule="evenodd" clip-rule="evenodd" d="M10 38.5L5.88602 40.663L6.67102 36.082L3.34302 32.837L7.94302 32.168L10 28L12.057 32.168L16.657 32.837L13.329 36.082L14.114 40.663L10 38.5Z" fill="white"/>
<path d="M43 25H27C25.8954 25 25 25.8954 25 27V43C25 44.1046 25.8954 45 27 45H43C44.1046 45 45 44.1046 45 43V27C45 25.8954 44.1046 25 43 25Z" fill="#F7941D"/>
<path fill-rule="evenodd" clip-rule="evenodd" d="M35 38.5L30.886 40.663L31.671 36.082L28.343 32.837L32.943 32.168L35 28L37.057 32.168L41.657 32.837L38.329 36.082L39.114 40.663L35 38.5Z" fill="white"/>
<path d="M68 25H52C50.8954 25 50 25.8954 50 27V43C50 44.1046 50.8954 45 52 45H68C69.1046 45 70 44.1046 70 43V27C70 25.8954 69.1046 25 68 25Z" fill="#F7941D"/>
<path fill-rule="evenodd" clip-rule="evenodd" d="M60 38.5L55.886 40.663L56.671 36.082L53.343 32.837L57.943 32.168L60 28L62.057 32.168L66.657 32.837L63.329 36.082L64.114 40.663L60 38.5Z" fill="white"/>
<path d="M93 25H77C75.8954 25 75 25.8954 75 27V43C75 44.1046 75.8954 45 77 45H93C94.1046 45 95 44.1046 95 43V27C95 25.8954 94.1046 25 93 25Z" fill="#F7941D"/>
<path fill-rule="evenodd" clip-rule="evenodd" d="M85 38.5L80.886 40.663L81.671 36.082L78.343 32.837L82.943 32.168L85 28L87.057 32.168L91.657 32.837L88.329 36.082L89.114 40.663L85 38.5Z" fill="white"/>
<path d="M118 25H102C100.895 25 100 25.8954 100 27V43C100 44.1046 100.895 45 102 45H118C119.105 45 120 44.1046 120 43V27C120 25.8954 119.105 25 118 25Z" fill="#F7941D"/>
<path fill-rule="evenodd" clip-rule="evenodd" d="M110 38.5L105.886 40.663L106.671 36.082L103.343 32.837L107.943 32.168L110 28L112.057 32.168L116.657 32.837L113.329 36.082L114.114 40.663L110 38.5Z" fill="white"/>
<path d="M18 0H2C0.89543 0 0 0.89543 0 2V18C0 19.1046 0.89543 20 2 20H18C19.1046 20 20 19.1046 20 18V2C20 0.89543 19.1046 0 18 0Z" fill="#DEDEDE"/>
<path fill-rule="evenodd" clip-rule="evenodd" d="M10 13.5L5.88602 15.663L6.67102 11.082L3.34302 7.837L7.94302 7.168L10 3L12.057 7.168L16.657 7.837L13.329 11.082L14.114 15.663L10 13.5Z" fill="white"/>
<path d="M43 0H27C25.8954 0 25 0.89543 25 2V18C25 19.1046 25.8954 20 27 20H43C44.1046 20 45 19.1046 45 18V2C45 0.89543 44.1046 0 43 0Z" fill="#DEDEDE"/>
<path fill-rule="evenodd" clip-rule="evenodd" d="M35 13.5L30.886 15.663L31.671 11.082L28.343 7.837L32.943 7.168L35 3L37.057 7.168L41.657 7.837L38.329 11.082L39.114 15.663L35 13.5Z" fill="white"/>
<path d="M68 0H52C50.8954 0 50 0.89543 50 2V18C50 19.1046 50.8954 20 52 20H68C69.1046 20 70 19.1046 70 18V2C70 0.89543 69.1046 0 68 0Z" fill="#DEDEDE"/>
<path fill-rule="evenodd" clip-rule="evenodd" d="M60 13.5L55.886 15.663L56.671 11.082L53.343 7.837L57.943 7.168L60 3L62.057 7.168L66.657 7.837L63.329 11.082L64.114 15.663L60 13.5Z" fill="white"/>
<path d="M93 0H77C75.8954 0 75 0.89543 75 2V18C75 19.1046 75.8954 20 77 20H93C94.1046 20 95 19.1046 95 18V2C95 0.89543 94.1046 0 93 0Z" fill="#DEDEDE"/>
<path fill-rule="evenodd" clip-rule="evenodd" d="M85 13.5L80.886 15.663L81.671 11.082L78.343 7.837L82.943 7.168L85 3L87.057 7.168L91.657 7.837L88.329 11.082L89.114 15.663L85 13.5Z" fill="white"/>
<path d="M118 0H102C100.895 0 100 0.89543 100 2V18C100 19.1046 100.895 20 102 20H118C119.105 20 120 19.1046 120 18V2C120 0.89543 119.105 0 118 0Z" fill="#DEDEDE"/>
<path fill-rule="evenodd" clip-rule="evenodd" d="M110 13.5L105.886 15.663L106.671 11.082L103.343 7.837L107.943 7.168L110 3L112.057 7.168L116.657 7.837L113.329 11.082L114.114 15.663L110 13.5Z" fill="white"/>
</svg>
