<svg width="96" height="48" viewBox="0 0 96 48" fill="none" xmlns="http://www.w3.org/2000/svg">
<path d="M15.1111 7.45779C15.2763 7.33473 15.3988 7.16307 15.4615 6.96686C15.5242 6.77065 15.5239 6.55974 15.4607 6.36371C15.3975 6.16767 15.2745 5.99633 15.109 5.87372C14.9435 5.75111 14.7437 5.68338 14.5378 5.68001L10.5378 5.5289C10.5181 5.52754 10.4993 5.52053 10.4835 5.5087C10.4677 5.49687 10.4557 5.48073 10.4489 5.46223L9.06668 1.7289C8.99723 1.53896 8.87109 1.37495 8.70535 1.25908C8.5396 1.1432 8.34225 1.08105 8.14001 1.08105C7.93777 1.08105 7.74042 1.1432 7.57467 1.25908C7.40893 1.37495 7.28279 1.53896 7.21334 1.7289L5.83557 5.47557C5.82876 5.49407 5.81674 5.5102 5.80097 5.52203C5.7852 5.53386 5.76634 5.54088 5.74668 5.54223L1.74668 5.69335C1.54072 5.69671 1.34099 5.76444 1.17547 5.88705C1.00996 6.00966 0.886971 6.181 0.823748 6.37704C0.760526 6.57308 0.760242 6.78399 0.822937 6.98019C0.885632 7.1764 1.00816 7.34807 1.17334 7.47112L4.31112 9.93779C4.32683 9.95015 4.33856 9.96684 4.34488 9.9858C4.3512 10.0048 4.35183 10.0251 4.34668 10.0445L3.26668 13.8711C3.21071 14.066 3.21613 14.2734 3.28221 14.465C3.34828 14.6567 3.47179 14.8234 3.63594 14.9424C3.8001 15.0613 3.99692 15.1269 4.19963 15.13C4.40235 15.1332 4.60112 15.0738 4.7689 14.96L8.08446 12.7378C8.10079 12.7265 8.12016 12.7205 8.14001 12.7205C8.15986 12.7205 8.17923 12.7265 8.19557 12.7378L11.5111 14.96C11.6766 15.0777 11.8747 15.141 12.0778 15.141C12.2809 15.141 12.4789 15.0777 12.6445 14.96C12.8086 14.8421 12.9323 14.6763 12.9983 14.4853C13.0644 14.2943 13.0696 14.0875 13.0133 13.8933L11.9245 10.0533C11.9187 10.0341 11.919 10.0135 11.9254 9.99439C11.9317 9.9753 11.9438 9.95864 11.96 9.94668L15.1111 7.45779Z" fill="#CCCCCC"/>
<path d="M35.1111 7.45779C35.2763 7.33473 35.3988 7.16307 35.4615 6.96686C35.5242 6.77065 35.5239 6.55974 35.4607 6.36371C35.3975 6.16767 35.2745 5.99633 35.109 5.87372C34.9435 5.75111 34.7437 5.68338 34.5378 5.68001L30.5378 5.5289C30.5181 5.52754 30.4993 5.52053 30.4835 5.5087C30.4677 5.49687 30.4557 5.48073 30.4489 5.46223L29.0667 1.7289C28.9972 1.53896 28.8711 1.37495 28.7053 1.25908C28.5396 1.1432 28.3422 1.08105 28.14 1.08105C27.9378 1.08105 27.7404 1.1432 27.5747 1.25908C27.4089 1.37495 27.2828 1.53896 27.2133 1.7289L25.8356 5.47557C25.8288 5.49407 25.8167 5.5102 25.801 5.52203C25.7852 5.53386 25.7663 5.54088 25.7467 5.54223L21.7467 5.69335C21.5407 5.69671 21.341 5.76444 21.1755 5.88705C21.01 6.00966 20.887 6.181 20.8237 6.37704C20.7605 6.57308 20.7602 6.78399 20.8229 6.98019C20.8856 7.1764 21.0082 7.34807 21.1733 7.47112L24.3111 9.93779C24.3268 9.95015 24.3386 9.96684 24.3449 9.9858C24.3512 10.0048 24.3518 10.0251 24.3467 10.0445L23.2667 13.8711C23.2107 14.066 23.2161 14.2734 23.2822 14.465C23.3483 14.6567 23.4718 14.8234 23.6359 14.9424C23.8001 15.0613 23.9969 15.1269 24.1996 15.13C24.4024 15.1332 24.6011 15.0738 24.7689 14.96L28.0845 12.7378C28.1008 12.7265 28.1202 12.7205 28.14 12.7205C28.1599 12.7205 28.1792 12.7265 28.1956 12.7378L31.5111 14.96C31.6766 15.0777 31.8747 15.141 32.0778 15.141C32.2809 15.141 32.4789 15.0777 32.6445 14.96C32.8086 14.8421 32.9323 14.6763 32.9983 14.4853C33.0644 14.2943 33.0696 14.0875 33.0133 13.8933L31.9245 10.0533C31.9187 10.0341 31.919 10.0135 31.9254 9.99439C31.9317 9.9753 31.9438 9.95864 31.96 9.94668L35.1111 7.45779Z" fill="#CCCCCC"/>
<path d="M55.1111 7.45779C55.2763 7.33473 55.3988 7.16307 55.4615 6.96686C55.5242 6.77065 55.5239 6.55974 55.4607 6.36371C55.3975 6.16767 55.2745 5.99633 55.109 5.87372C54.9435 5.75111 54.7437 5.68338 54.5378 5.68001L50.5378 5.5289C50.5181 5.52754 50.4993 5.52053 50.4835 5.5087C50.4677 5.49687 50.4557 5.48073 50.4489 5.46223L49.0667 1.7289C48.9972 1.53896 48.8711 1.37495 48.7053 1.25908C48.5396 1.1432 48.3422 1.08105 48.14 1.08105C47.9378 1.08105 47.7404 1.1432 47.5747 1.25908C47.4089 1.37495 47.2828 1.53896 47.2133 1.7289L45.8356 5.47557C45.8288 5.49407 45.8167 5.5102 45.801 5.52203C45.7852 5.53386 45.7663 5.54088 45.7467 5.54223L41.7467 5.69335C41.5407 5.69671 41.341 5.76444 41.1755 5.88705C41.01 6.00966 40.887 6.181 40.8237 6.37704C40.7605 6.57308 40.7602 6.78399 40.8229 6.98019C40.8856 7.1764 41.0082 7.34807 41.1733 7.47112L44.3111 9.93779C44.3268 9.95015 44.3386 9.96684 44.3449 9.9858C44.3512 10.0048 44.3518 10.0251 44.3467 10.0445L43.2667 13.8711C43.2107 14.066 43.2161 14.2734 43.2822 14.465C43.3483 14.6567 43.4718 14.8234 43.6359 14.9424C43.8001 15.0613 43.9969 15.1269 44.1996 15.13C44.4024 15.1332 44.6011 15.0738 44.7689 14.96L48.0845 12.7378C48.1008 12.7265 48.1202 12.7205 48.14 12.7205C48.1599 12.7205 48.1792 12.7265 48.1956 12.7378L51.5111 14.96C51.6766 15.0777 51.8747 15.141 52.0778 15.141C52.2809 15.141 52.4789 15.0777 52.6445 14.96C52.8086 14.8421 52.9323 14.6763 52.9983 14.4853C53.0644 14.2943 53.0696 14.0875 53.0133 13.8933L51.9245 10.0533C51.9187 10.0341 51.919 10.0135 51.9254 9.99439C51.9317 9.9753 51.9438 9.95864 51.96 9.94668L55.1111 7.45779Z" fill="#CCCCCC"/>
<path d="M75.1111 7.45779C75.2763 7.33473 75.3988 7.16307 75.4615 6.96686C75.5242 6.77065 75.5239 6.55974 75.4607 6.36371C75.3975 6.16767 75.2745 5.99633 75.109 5.87372C74.9435 5.75111 74.7437 5.68338 74.5378 5.68001L70.5378 5.5289C70.5181 5.52754 70.4993 5.52053 70.4835 5.5087C70.4677 5.49687 70.4557 5.48073 70.4489 5.46223L69.0667 1.7289C68.9972 1.53896 68.8711 1.37495 68.7053 1.25908C68.5396 1.1432 68.3422 1.08105 68.14 1.08105C67.9378 1.08105 67.7404 1.1432 67.5747 1.25908C67.4089 1.37495 67.2828 1.53896 67.2133 1.7289L65.8356 5.47557C65.8288 5.49407 65.8167 5.5102 65.801 5.52203C65.7852 5.53386 65.7663 5.54088 65.7467 5.54223L61.7467 5.69335C61.5407 5.69671 61.341 5.76444 61.1755 5.88705C61.01 6.00966 60.887 6.181 60.8237 6.37704C60.7605 6.57308 60.7602 6.78399 60.8229 6.98019C60.8856 7.1764 61.0082 7.34807 61.1733 7.47112L64.3111 9.93779C64.3268 9.95015 64.3386 9.96684 64.3449 9.9858C64.3512 10.0048 64.3518 10.0251 64.3467 10.0445L63.2667 13.8711C63.2107 14.066 63.2161 14.2734 63.2822 14.465C63.3483 14.6567 63.4718 14.8234 63.6359 14.9424C63.8001 15.0613 63.9969 15.1269 64.1996 15.13C64.4024 15.1332 64.6011 15.0738 64.7689 14.96L68.0845 12.7378C68.1008 12.7265 68.1202 12.7205 68.14 12.7205C68.1599 12.7205 68.1792 12.7265 68.1956 12.7378L71.5111 14.96C71.6766 15.0777 71.8747 15.141 72.0778 15.141C72.2809 15.141 72.4789 15.0777 72.6445 14.96C72.8086 14.8421 72.9323 14.6763 72.9983 14.4853C73.0644 14.2943 73.0696 14.0875 73.0133 13.8933L71.9245 10.0533C71.9187 10.0341 71.919 10.0135 71.9254 9.99439C71.9317 9.9753 71.9438 9.95864 71.96 9.94668L75.1111 7.45779Z" fill="#CCCCCC"/>
<path d="M95.1111 7.45779C95.2763 7.33473 95.3988 7.16307 95.4615 6.96686C95.5242 6.77065 95.5239 6.55974 95.4607 6.36371C95.3975 6.16767 95.2745 5.99633 95.109 5.87372C94.9435 5.75111 94.7437 5.68338 94.5378 5.68001L90.5378 5.5289C90.5181 5.52754 90.4993 5.52053 90.4835 5.5087C90.4677 5.49687 90.4557 5.48073 90.4489 5.46223L89.0667 1.7289C88.9972 1.53896 88.8711 1.37495 88.7053 1.25908C88.5396 1.1432 88.3422 1.08105 88.14 1.08105C87.9378 1.08105 87.7404 1.1432 87.5747 1.25908C87.4089 1.37495 87.2828 1.53896 87.2133 1.7289L85.8356 5.47557C85.8288 5.49407 85.8167 5.5102 85.801 5.52203C85.7852 5.53386 85.7663 5.54088 85.7467 5.54223L81.7467 5.69335C81.5407 5.69671 81.341 5.76444 81.1755 5.88705C81.01 6.00966 80.887 6.181 80.8237 6.37704C80.7605 6.57308 80.7602 6.78399 80.8229 6.98019C80.8856 7.1764 81.0082 7.34807 81.1733 7.47112L84.3111 9.93779C84.3268 9.95015 84.3386 9.96684 84.3449 9.9858C84.3512 10.0048 84.3518 10.0251 84.3467 10.0445L83.2667 13.8711C83.2107 14.066 83.2161 14.2734 83.2822 14.465C83.3483 14.6567 83.4718 14.8234 83.6359 14.9424C83.8001 15.0613 83.9969 15.1269 84.1996 15.13C84.4024 15.1332 84.6011 15.0738 84.7689 14.96L88.0845 12.7378C88.1008 12.7265 88.1202 12.7205 88.14 12.7205C88.1599 12.7205 88.1792 12.7265 88.1956 12.7378L91.5111 14.96C91.6766 15.0777 91.8747 15.141 92.0778 15.141C92.2809 15.141 92.4789 15.0777 92.6445 14.96C92.8086 14.8421 92.9323 14.6763 92.9983 14.4853C93.0644 14.2943 93.0696 14.0875 93.0133 13.8933L91.9245 10.0533C91.9187 10.0341 91.919 10.0135 91.9254 9.99439C91.9317 9.9753 91.9438 9.95864 91.96 9.94668L95.1111 7.45779Z" fill="#CCCCCC"/>
<path d="M15.1111 39.4578C15.2763 39.3347 15.3988 39.1631 15.4615 38.9669C15.5242 38.7707 15.5239 38.5597 15.4607 38.3637C15.3975 38.1677 15.2745 37.9963 15.109 37.8737C14.9435 37.7511 14.7437 37.6834 14.5378 37.68L10.5378 37.5289C10.5181 37.5275 10.4993 37.5205 10.4835 37.5087C10.4677 37.4969 10.4557 37.4807 10.4489 37.4622L9.06668 33.7289C8.99723 33.539 8.87109 33.375 8.70535 33.2591C8.5396 33.1432 8.34225 33.0811 8.14001 33.0811C7.93777 33.0811 7.74042 33.1432 7.57467 33.2591C7.40893 33.375 7.28279 33.539 7.21334 33.7289L5.83557 37.4756C5.82876 37.4941 5.81674 37.5102 5.80097 37.522C5.7852 37.5339 5.76634 37.5409 5.74668 37.5422L1.74668 37.6933C1.54072 37.6967 1.34099 37.7644 1.17547 37.8871C1.00996 38.0097 0.886971 38.181 0.823748 38.377C0.760526 38.5731 0.760242 38.784 0.822937 38.9802C0.885632 39.1764 1.00816 39.3481 1.17334 39.4711L4.31112 41.9378C4.32683 41.9501 4.33856 41.9668 4.34488 41.9858C4.3512 42.0048 4.35183 42.0251 4.34668 42.0445L3.26668 45.8711C3.21071 46.066 3.21613 46.2734 3.28221 46.465C3.34828 46.6567 3.47179 46.8234 3.63594 46.9424C3.8001 47.0613 3.99692 47.1269 4.19963 47.13C4.40235 47.1332 4.60112 47.0738 4.7689 46.96L8.08446 44.7378C8.10079 44.7265 8.12016 44.7205 8.14001 44.7205C8.15986 44.7205 8.17923 44.7265 8.19557 44.7378L11.5111 46.96C11.6766 47.0777 11.8747 47.141 12.0778 47.141C12.2809 47.141 12.4789 47.0777 12.6445 46.96C12.8086 46.8421 12.9323 46.6763 12.9983 46.4853C13.0644 46.2943 13.0696 46.0875 13.0133 45.8933L11.9245 42.0533C11.9187 42.0341 11.919 42.0135 11.9254 41.9944C11.9317 41.9753 11.9438 41.9586 11.96 41.9467L15.1111 39.4578Z" fill="#F7CA18"/>
<path d="M35.1111 39.4578C35.2763 39.3347 35.3988 39.1631 35.4615 38.9669C35.5242 38.7707 35.5239 38.5597 35.4607 38.3637C35.3975 38.1677 35.2745 37.9963 35.109 37.8737C34.9435 37.7511 34.7437 37.6834 34.5378 37.68L30.5378 37.5289C30.5181 37.5275 30.4993 37.5205 30.4835 37.5087C30.4677 37.4969 30.4557 37.4807 30.4489 37.4622L29.0667 33.7289C28.9972 33.539 28.8711 33.375 28.7053 33.2591C28.5396 33.1432 28.3422 33.0811 28.14 33.0811C27.9378 33.0811 27.7404 33.1432 27.5747 33.2591C27.4089 33.375 27.2828 33.539 27.2133 33.7289L25.8356 37.4756C25.8288 37.4941 25.8167 37.5102 25.801 37.522C25.7852 37.5339 25.7663 37.5409 25.7467 37.5422L21.7467 37.6933C21.5407 37.6967 21.341 37.7644 21.1755 37.8871C21.01 38.0097 20.887 38.181 20.8237 38.377C20.7605 38.5731 20.7602 38.784 20.8229 38.9802C20.8856 39.1764 21.0082 39.3481 21.1733 39.4711L24.3111 41.9378C24.3268 41.9501 24.3386 41.9668 24.3449 41.9858C24.3512 42.0048 24.3518 42.0251 24.3467 42.0445L23.2667 45.8711C23.2107 46.066 23.2161 46.2734 23.2822 46.465C23.3483 46.6567 23.4718 46.8234 23.6359 46.9424C23.8001 47.0613 23.9969 47.1269 24.1996 47.13C24.4024 47.1332 24.6011 47.0738 24.7689 46.96L28.0845 44.7378C28.1008 44.7265 28.1202 44.7205 28.14 44.7205C28.1599 44.7205 28.1792 44.7265 28.1956 44.7378L31.5111 46.96C31.6766 47.0777 31.8747 47.141 32.0778 47.141C32.2809 47.141 32.4789 47.0777 32.6445 46.96C32.8086 46.8421 32.9323 46.6763 32.9983 46.4853C33.0644 46.2943 33.0696 46.0875 33.0133 45.8933L31.9245 42.0533C31.9187 42.0341 31.919 42.0135 31.9254 41.9944C31.9317 41.9753 31.9438 41.9586 31.96 41.9467L35.1111 39.4578Z" fill="#F7CA18"/>
<path d="M55.1111 39.4578C55.2763 39.3347 55.3988 39.1631 55.4615 38.9669C55.5242 38.7707 55.5239 38.5597 55.4607 38.3637C55.3975 38.1677 55.2745 37.9963 55.109 37.8737C54.9435 37.7511 54.7437 37.6834 54.5378 37.68L50.5378 37.5289C50.5181 37.5275 50.4993 37.5205 50.4835 37.5087C50.4677 37.4969 50.4557 37.4807 50.4489 37.4622L49.0667 33.7289C48.9972 33.539 48.8711 33.375 48.7053 33.2591C48.5396 33.1432 48.3422 33.0811 48.14 33.0811C47.9378 33.0811 47.7404 33.1432 47.5747 33.2591C47.4089 33.375 47.2828 33.539 47.2133 33.7289L45.8356 37.4756C45.8288 37.4941 45.8167 37.5102 45.801 37.522C45.7852 37.5339 45.7663 37.5409 45.7467 37.5422L41.7467 37.6933C41.5407 37.6967 41.341 37.7644 41.1755 37.8871C41.01 38.0097 40.887 38.181 40.8237 38.377C40.7605 38.5731 40.7602 38.784 40.8229 38.9802C40.8856 39.1764 41.0082 39.3481 41.1733 39.4711L44.3111 41.9378C44.3268 41.9501 44.3386 41.9668 44.3449 41.9858C44.3512 42.0048 44.3518 42.0251 44.3467 42.0445L43.2667 45.8711C43.2107 46.066 43.2161 46.2734 43.2822 46.465C43.3483 46.6567 43.4718 46.8234 43.6359 46.9424C43.8001 47.0613 43.9969 47.1269 44.1996 47.13C44.4024 47.1332 44.6011 47.0738 44.7689 46.96L48.0845 44.7378C48.1008 44.7265 48.1202 44.7205 48.14 44.7205C48.1599 44.7205 48.1792 44.7265 48.1956 44.7378L51.5111 46.96C51.6766 47.0777 51.8747 47.141 52.0778 47.141C52.2809 47.141 52.4789 47.0777 52.6445 46.96C52.8086 46.8421 52.9323 46.6763 52.9983 46.4853C53.0644 46.2943 53.0696 46.0875 53.0133 45.8933L51.9245 42.0533C51.9187 42.0341 51.919 42.0135 51.9254 41.9944C51.9317 41.9753 51.9438 41.9586 51.96 41.9467L55.1111 39.4578Z" fill="#F7CA18"/>
<path d="M75.1111 39.4578C75.2763 39.3347 75.3988 39.1631 75.4615 38.9669C75.5242 38.7707 75.5239 38.5597 75.4607 38.3637C75.3975 38.1677 75.2745 37.9963 75.109 37.8737C74.9435 37.7511 74.7437 37.6834 74.5378 37.68L70.5378 37.5289C70.5181 37.5275 70.4993 37.5205 70.4835 37.5087C70.4677 37.4969 70.4557 37.4807 70.4489 37.4622L69.0667 33.7289C68.9972 33.539 68.8711 33.375 68.7053 33.2591C68.5396 33.1432 68.3422 33.0811 68.14 33.0811C67.9378 33.0811 67.7404 33.1432 67.5747 33.2591C67.4089 33.375 67.2828 33.539 67.2133 33.7289L65.8356 37.4756C65.8288 37.4941 65.8167 37.5102 65.801 37.522C65.7852 37.5339 65.7663 37.5409 65.7467 37.5422L61.7467 37.6933C61.5407 37.6967 61.341 37.7644 61.1755 37.8871C61.01 38.0097 60.887 38.181 60.8237 38.377C60.7605 38.5731 60.7602 38.784 60.8229 38.9802C60.8856 39.1764 61.0082 39.3481 61.1733 39.4711L64.3111 41.9378C64.3268 41.9501 64.3386 41.9668 64.3449 41.9858C64.3512 42.0048 64.3518 42.0251 64.3467 42.0445L63.2667 45.8711C63.2107 46.066 63.2161 46.2734 63.2822 46.465C63.3483 46.6567 63.4718 46.8234 63.6359 46.9424C63.8001 47.0613 63.9969 47.1269 64.1996 47.13C64.4024 47.1332 64.6011 47.0738 64.7689 46.96L68.0845 44.7378C68.1008 44.7265 68.1202 44.7205 68.14 44.7205C68.1599 44.7205 68.1792 44.7265 68.1956 44.7378L71.5111 46.96C71.6766 47.0777 71.8747 47.141 72.0778 47.141C72.2809 47.141 72.4789 47.0777 72.6445 46.96C72.8086 46.8421 72.9323 46.6763 72.9983 46.4853C73.0644 46.2943 73.0696 46.0875 73.0133 45.8933L71.9245 42.0533C71.9187 42.0341 71.919 42.0135 71.9254 41.9944C71.9317 41.9753 71.9438 41.9586 71.96 41.9467L75.1111 39.4578Z" fill="#F7CA18"/>
<path d="M95.1111 39.4578C95.2763 39.3347 95.3988 39.1631 95.4615 38.9669C95.5242 38.7707 95.5239 38.5597 95.4607 38.3637C95.3975 38.1677 95.2745 37.9963 95.109 37.8737C94.9435 37.7511 94.7437 37.6834 94.5378 37.68L90.5378 37.5289C90.5181 37.5275 90.4993 37.5205 90.4835 37.5087C90.4677 37.4969 90.4557 37.4807 90.4489 37.4622L89.0667 33.7289C88.9972 33.539 88.8711 33.375 88.7053 33.2591C88.5396 33.1432 88.3422 33.0811 88.14 33.0811C87.9378 33.0811 87.7404 33.1432 87.5747 33.2591C87.4089 33.375 87.2828 33.539 87.2133 33.7289L85.8356 37.4756C85.8288 37.4941 85.8167 37.5102 85.801 37.522C85.7852 37.5339 85.7663 37.5409 85.7467 37.5422L81.7467 37.6933C81.5407 37.6967 81.341 37.7644 81.1755 37.8871C81.01 38.0097 80.887 38.181 80.8237 38.377C80.7605 38.5731 80.7602 38.784 80.8229 38.9802C80.8856 39.1764 81.0082 39.3481 81.1733 39.4711L84.3111 41.9378C84.3268 41.9501 84.3386 41.9668 84.3449 41.9858C84.3512 42.0048 84.3518 42.0251 84.3467 42.0445L83.2667 45.8711C83.2107 46.066 83.2161 46.2734 83.2822 46.465C83.3483 46.6567 83.4718 46.8234 83.6359 46.9424C83.8001 47.0613 83.9969 47.1269 84.1996 47.13C84.4024 47.1332 84.6011 47.0738 84.7689 46.96L88.0845 44.7378C88.1008 44.7265 88.1202 44.7205 88.14 44.7205C88.1599 44.7205 88.1792 44.7265 88.1956 44.7378L91.5111 46.96C91.6766 47.0777 91.8747 47.141 92.0778 47.141C92.2809 47.141 92.4789 47.0777 92.6445 46.96C92.8086 46.8421 92.9323 46.6763 92.9983 46.4853C93.0644 46.2943 93.0696 46.0875 93.0133 45.8933L91.9245 42.0533C91.9187 42.0341 91.919 42.0135 91.9254 41.9944C91.9317 41.9753 91.9438 41.9586 91.96 41.9467L95.1111 39.4578Z" fill="#F7CA18"/>
</svg>
